<svg width="285" height="82" viewBox="0 0 285 82" fill="none" xmlns="http://www.w3.org/2000/svg">
<path d="M100.393 41.087C100.393 38.571 100.973 36.314 102.132 34.316C103.316 32.318 104.907 30.764 106.905 29.654C108.928 28.5193 111.135 27.952 113.528 27.952C116.266 27.952 118.696 28.6303 120.817 29.987C122.963 31.319 124.517 33.2183 125.479 35.685H120.41C119.744 34.3283 118.819 33.317 117.635 32.651C116.451 31.985 115.082 31.652 113.528 31.652C111.826 31.652 110.309 32.0343 108.977 32.799C107.645 33.5637 106.597 34.6613 105.832 36.092C105.092 37.5227 104.722 39.1877 104.722 41.087C104.722 42.9863 105.092 44.6513 105.832 46.082C106.597 47.5127 107.645 48.6227 108.977 49.412C110.309 50.1767 111.826 50.559 113.528 50.559C115.082 50.559 116.451 50.226 117.635 49.56C118.819 48.894 119.744 47.8827 120.41 46.526H125.479C124.517 48.9927 122.963 50.892 120.817 52.224C118.696 53.556 116.266 54.222 113.528 54.222C111.111 54.222 108.903 53.667 106.905 52.557C104.907 51.4223 103.316 49.856 102.132 47.858C100.973 45.86 100.393 43.603 100.393 41.087ZM134.634 26.62V54H130.416V26.62H134.634ZM149.015 54.333C147.091 54.333 145.352 53.9013 143.798 53.038C142.244 52.15 141.023 50.9167 140.135 49.338C139.247 47.7347 138.803 45.8847 138.803 43.788C138.803 41.716 139.259 39.8783 140.172 38.275C141.085 36.6717 142.33 35.4383 143.909 34.575C145.488 33.7117 147.251 33.28 149.2 33.28C151.149 33.28 152.912 33.7117 154.491 34.575C156.07 35.4383 157.315 36.6717 158.228 38.275C159.141 39.8783 159.597 41.716 159.597 43.788C159.597 45.86 159.128 47.6977 158.191 49.301C157.254 50.9043 155.971 52.15 154.343 53.038C152.74 53.9013 150.964 54.333 149.015 54.333ZM149.015 50.67C150.1 50.67 151.112 50.411 152.049 49.893C153.011 49.375 153.788 48.598 154.38 47.562C154.972 46.526 155.268 45.268 155.268 43.788C155.268 42.308 154.984 41.0623 154.417 40.051C153.85 39.015 153.097 38.238 152.16 37.72C151.223 37.202 150.211 36.943 149.126 36.943C148.041 36.943 147.029 37.202 146.092 37.72C145.179 38.238 144.452 39.015 143.909 40.051C143.366 41.0623 143.095 42.308 143.095 43.788C143.095 45.9833 143.65 47.6853 144.76 48.894C145.895 50.078 147.313 50.67 149.015 50.67ZM182.23 33.613V54H178.012V51.595C177.346 52.4337 176.47 53.0997 175.385 53.593C174.324 54.0617 173.189 54.296 171.981 54.296C170.377 54.296 168.934 53.963 167.652 53.297C166.394 52.631 165.395 51.6443 164.655 50.337C163.939 49.0297 163.582 47.451 163.582 45.601V33.613H167.763V44.972C167.763 46.7973 168.219 48.2033 169.132 49.19C170.044 50.152 171.29 50.633 172.869 50.633C174.447 50.633 175.693 50.152 176.606 49.19C177.543 48.2033 178.012 46.7973 178.012 44.972V33.613H182.23ZM186.389 43.714C186.389 41.6667 186.808 39.8537 187.647 38.275C188.51 36.6963 189.67 35.4753 191.125 34.612C192.605 33.724 194.245 33.28 196.046 33.28C197.378 33.28 198.685 33.576 199.968 34.168C201.275 34.7353 202.311 35.5 203.076 36.462V26.62H207.331V54H203.076V50.929C202.385 51.9157 201.423 52.7297 200.19 53.371C198.981 54.0123 197.588 54.333 196.009 54.333C194.233 54.333 192.605 53.889 191.125 53.001C189.67 52.0883 188.51 50.8303 187.647 49.227C186.808 47.599 186.389 45.7613 186.389 43.714ZM203.076 43.788C203.076 42.382 202.78 41.161 202.188 40.125C201.621 39.089 200.868 38.2997 199.931 37.757C198.994 37.2143 197.982 36.943 196.897 36.943C195.812 36.943 194.8 37.2143 193.863 37.757C192.926 38.275 192.161 39.052 191.569 40.088C191.002 41.0993 190.718 42.308 190.718 43.714C190.718 45.12 191.002 46.3533 191.569 47.414C192.161 48.4747 192.926 49.2887 193.863 49.856C194.825 50.3987 195.836 50.67 196.897 50.67C197.982 50.67 198.994 50.3987 199.931 49.856C200.868 49.3133 201.621 48.524 202.188 47.488C202.78 46.4273 203.076 45.194 203.076 43.788ZM230.853 35.944C230.853 37.2513 230.545 38.4847 229.928 39.644C229.312 40.8033 228.325 41.753 226.968 42.493C225.612 43.2083 223.873 43.566 221.751 43.566H217.089V54H212.871V28.285H221.751C223.725 28.285 225.39 28.6303 226.746 29.321C228.128 29.987 229.151 30.8997 229.817 32.059C230.508 33.2183 230.853 34.5133 230.853 35.944ZM221.751 40.125C223.355 40.125 224.551 39.7673 225.34 39.052C226.13 38.312 226.524 37.276 226.524 35.944C226.524 33.132 224.933 31.726 221.751 31.726H217.089V40.125H221.751ZM243.719 54.333C241.795 54.333 240.056 53.9013 238.502 53.038C236.948 52.15 235.727 50.9167 234.839 49.338C233.951 47.7347 233.507 45.8847 233.507 43.788C233.507 41.716 233.963 39.8783 234.876 38.275C235.789 36.6717 237.034 35.4383 238.613 34.575C240.192 33.7117 241.955 33.28 243.904 33.28C245.853 33.28 247.616 33.7117 249.195 34.575C250.774 35.4383 252.019 36.6717 252.932 38.275C253.845 39.8783 254.301 41.716 254.301 43.788C254.301 45.86 253.832 47.6977 252.895 49.301C251.958 50.9043 250.675 52.15 249.047 53.038C247.444 53.9013 245.668 54.333 243.719 54.333ZM243.719 50.67C244.804 50.67 245.816 50.411 246.753 49.893C247.715 49.375 248.492 48.598 249.084 47.562C249.676 46.526 249.972 45.268 249.972 43.788C249.972 42.308 249.688 41.0623 249.121 40.051C248.554 39.015 247.801 38.238 246.864 37.72C245.927 37.202 244.915 36.943 243.83 36.943C242.745 36.943 241.733 37.202 240.796 37.72C239.883 38.238 239.156 39.015 238.613 40.051C238.07 41.0623 237.799 42.308 237.799 43.788C237.799 45.9833 238.354 47.6853 239.464 48.894C240.599 50.078 242.017 50.67 243.719 50.67ZM262.689 36.573C263.305 35.537 264.119 34.7353 265.131 34.168C266.167 33.576 267.388 33.28 268.794 33.28V37.646H267.721C266.068 37.646 264.81 38.0653 263.947 38.904C263.108 39.7427 262.689 41.198 262.689 43.27V54H258.471V33.613H262.689V36.573ZM277.592 37.054V48.339C277.592 49.1037 277.765 49.6587 278.11 50.004C278.48 50.3247 279.097 50.485 279.96 50.485H282.55V54H279.22C277.321 54 275.865 53.556 274.854 52.668C273.843 51.78 273.337 50.337 273.337 48.339V37.054H270.932V33.613H273.337V28.544H277.592V33.613H282.55V37.054H277.592Z" fill="#78ACC1"/>
<rect opacity="0.2" width="74.2642" height="75.6923" rx="37.1321" fill="#78ACC1"/>
<rect x="32.4907" y="31.5385" width="49.5094" height="50.4615" rx="24" fill="#78ACC1"/>
</svg>
