<svg width="24" height="25" viewBox="0 0 24 25" fill="none" xmlns="http://www.w3.org/2000/svg">
<path d="M8.25 9.77539V6.02539C8.25 5.42865 8.48705 4.85636 8.90901 4.4344C9.33097 4.01244 9.90326 3.77539 10.5 3.77539H16.5C17.0967 3.77539 17.669 4.01244 18.091 4.4344C18.5129 4.85636 18.75 5.42865 18.75 6.02539V19.5254C18.75 20.1221 18.5129 20.6944 18.091 21.1164C17.669 21.5383 17.0967 21.7754 16.5 21.7754H10.5C9.90326 21.7754 9.33097 21.5383 8.90901 21.1164C8.48705 20.6944 8.25 20.1221 8.25 19.5254V15.7754M5.25 15.7754L2.25 12.7754M2.25 12.7754L5.25 9.77539M2.25 12.7754H15" stroke="#60899A" stroke-width="1.5" stroke-linecap="round" stroke-linejoin="round"/>
</svg>
