<svg width="290" height="82" viewBox="0 0 290 82" fill="none" xmlns="http://www.w3.org/2000/svg">
<path d="M103.706 40.4147C103.706 37.8704 104.292 35.588 105.465 33.5675C106.662 31.547 108.271 29.9756 110.291 28.8531C112.337 27.7056 114.569 27.1319 116.989 27.1319C119.758 27.1319 122.215 27.8179 124.36 29.1898C126.53 30.5368 128.102 32.4575 129.074 34.9519H123.948C123.275 33.58 122.339 32.5573 121.142 31.8838C119.945 31.2103 118.56 30.8735 116.989 30.8735C115.268 30.8735 113.734 31.2602 112.387 32.0334C111.04 32.8067 109.98 33.9167 109.206 35.3635C108.458 36.8102 108.084 38.494 108.084 40.4147C108.084 42.3354 108.458 44.0191 109.206 45.4658C109.98 46.9126 111.04 48.0351 112.387 48.8333C113.734 49.6066 115.268 49.9932 116.989 49.9932C118.56 49.9932 119.945 49.6565 121.142 48.983C122.339 48.3095 123.275 47.2868 123.948 45.9148H129.074C128.102 48.4092 126.53 50.3299 124.36 51.6769C122.215 53.0239 119.758 53.6974 116.989 53.6974C114.544 53.6974 112.312 53.1362 110.291 52.0137C108.271 50.8662 106.662 49.2823 105.465 47.2618C104.292 45.2413 103.706 42.959 103.706 40.4147ZM138.332 25.7849V53.4729H134.067V25.7849H138.332ZM152.875 53.8096C150.929 53.8096 149.171 53.3731 147.599 52.5001C146.028 51.6021 144.793 50.3549 143.895 48.7585C142.997 47.1371 142.548 45.2663 142.548 43.146C142.548 41.0507 143.01 39.1924 143.933 37.571C144.856 35.9497 146.115 34.7025 147.712 33.8294C149.308 32.9564 151.092 32.5199 153.062 32.5199C155.033 32.5199 156.816 32.9564 158.413 33.8294C160.009 34.7025 161.269 35.9497 162.192 37.571C163.115 39.1924 163.576 41.0507 163.576 43.146C163.576 45.2413 163.102 47.0997 162.154 48.721C161.206 50.3424 159.909 51.6021 158.263 52.5001C156.642 53.3731 154.846 53.8096 152.875 53.8096ZM152.875 50.1054C153.973 50.1054 154.995 49.8435 155.943 49.3197C156.916 48.7959 157.702 48.0101 158.3 46.9625C158.899 45.9148 159.198 44.6427 159.198 43.146C159.198 41.6494 158.912 40.3897 158.338 39.367C157.764 38.3194 157.003 37.5336 156.055 37.0098C155.108 36.486 154.085 36.2241 152.987 36.2241C151.89 36.2241 150.867 36.486 149.919 37.0098C148.996 37.5336 148.26 38.3194 147.712 39.367C147.163 40.3897 146.889 41.6494 146.889 43.146C146.889 45.3661 147.45 47.0872 148.572 48.3095C149.72 49.5068 151.154 50.1054 152.875 50.1054ZM186.463 32.8566V53.4729H182.198V51.0409C181.524 51.8889 180.639 52.5624 179.541 53.0613C178.469 53.5353 177.321 53.7722 176.099 53.7722C174.478 53.7722 173.019 53.4355 171.721 52.762C170.449 52.0885 169.439 51.0907 168.691 49.7687C167.967 48.4467 167.606 46.8502 167.606 44.9794V32.8566H171.834V44.3434C171.834 46.1892 172.295 47.611 173.218 48.6088C174.141 49.5816 175.401 50.068 176.997 50.068C178.594 50.068 179.853 49.5816 180.776 48.6088C181.724 47.611 182.198 46.1892 182.198 44.3434V32.8566H186.463ZM190.669 43.0712C190.669 41.0008 191.094 39.1675 191.942 37.571C192.815 35.9746 193.987 34.7399 195.459 33.8668C196.955 32.9688 198.614 32.5199 200.435 32.5199C201.782 32.5199 203.104 32.8192 204.401 33.4178C205.723 33.9916 206.771 34.7648 207.544 35.7376V25.7849H211.847V53.4729H207.544V50.3674C206.846 51.3651 205.873 52.1883 204.626 52.8368C203.403 53.4854 201.994 53.8096 200.398 53.8096C198.602 53.8096 196.955 53.3607 195.459 52.4627C193.987 51.5397 192.815 50.2676 191.942 48.6462C191.094 46.9999 190.669 45.1416 190.669 43.0712ZM207.544 43.146C207.544 41.7242 207.245 40.4895 206.646 39.4418C206.072 38.3942 205.312 37.596 204.364 37.0472C203.416 36.4984 202.393 36.2241 201.296 36.2241C200.198 36.2241 199.175 36.4984 198.228 37.0472C197.28 37.571 196.506 38.3568 195.908 39.4044C195.334 40.4271 195.047 41.6494 195.047 43.0712C195.047 44.493 195.334 45.7402 195.908 46.8128C196.506 47.8854 197.28 48.7086 198.228 49.2823C199.2 49.8311 200.223 50.1054 201.296 50.1054C202.393 50.1054 203.416 49.8311 204.364 49.2823C205.312 48.7335 206.072 47.9353 206.646 46.8877C207.245 45.8151 207.544 44.5679 207.544 43.146ZM235.634 35.2138C235.634 36.5359 235.322 37.7831 234.698 38.9554C234.075 40.1278 233.077 41.0882 231.705 41.8365C230.333 42.5599 228.575 42.9215 226.429 42.9215H221.715V53.4729H217.45V27.4687H226.429C228.425 27.4687 230.109 27.8179 231.481 28.5163C232.877 29.1898 233.913 30.1127 234.586 31.2851C235.285 32.4575 235.634 33.7671 235.634 35.2138ZM226.429 39.4418C228.051 39.4418 229.261 39.0802 230.059 38.3568C230.857 37.6085 231.256 36.5608 231.256 35.2138C231.256 32.3702 229.647 30.9484 226.429 30.9484H221.715V39.4418H226.429ZM248.644 53.8096C246.699 53.8096 244.94 53.3731 243.369 52.5001C241.797 51.6021 240.562 50.3549 239.664 48.7585C238.766 47.1371 238.317 45.2663 238.317 43.146C238.317 41.0507 238.779 39.1924 239.702 37.571C240.625 35.9497 241.884 34.7025 243.481 33.8294C245.077 32.9564 246.861 32.5199 248.831 32.5199C250.802 32.5199 252.586 32.9564 254.182 33.8294C255.778 34.7025 257.038 35.9497 257.961 37.571C258.884 39.1924 259.345 41.0507 259.345 43.146C259.345 45.2413 258.871 47.0997 257.924 48.721C256.976 50.3424 255.679 51.6021 254.032 52.5001C252.411 53.3731 250.615 53.8096 248.644 53.8096ZM248.644 50.1054C249.742 50.1054 250.765 49.8435 251.712 49.3197C252.685 48.7959 253.471 48.0101 254.07 46.9625C254.668 45.9148 254.968 44.6427 254.968 43.146C254.968 41.6494 254.681 40.3897 254.107 39.367C253.533 38.3194 252.773 37.5336 251.825 37.0098C250.877 36.486 249.854 36.2241 248.757 36.2241C247.659 36.2241 246.636 36.486 245.688 37.0098C244.766 37.5336 244.03 38.3194 243.481 39.367C242.932 40.3897 242.658 41.6494 242.658 43.146C242.658 45.3661 243.219 47.0872 244.341 48.3095C245.489 49.5068 246.923 50.1054 248.644 50.1054ZM267.827 35.8499C268.451 34.8022 269.274 33.9916 270.297 33.4178C271.345 32.8192 272.579 32.5199 274.001 32.5199V36.935H272.916C271.245 36.935 269.973 37.359 269.1 38.2071C268.251 39.0552 267.827 40.5269 267.827 42.6222V53.4729H263.562V32.8566H267.827V35.8499ZM282.898 36.3363V47.7482C282.898 48.5215 283.073 49.0827 283.422 49.432C283.796 49.7562 284.42 49.9184 285.293 49.9184H287.912V53.4729H284.545C282.624 53.4729 281.152 53.0239 280.129 52.1259C279.107 51.2279 278.595 49.7687 278.595 47.7482V36.3363H276.163V32.8566H278.595V27.7306H282.898V32.8566H287.912V36.3363H282.898Z" fill="white"/>
<rect opacity="0.2" x="0.986328" width="74.8323" height="74.8323" rx="37.4161" fill="white"/>
<rect x="33.7256" y="31.1802" width="49.8882" height="49.8882" rx="24.9441" fill="white"/>
</svg>
